<svg xmlns="http://www.w3.org/2000/svg" width="18.699" height="12.466" viewBox="0 0 18.699 12.466">
  <g id="Group_2849" data-name="Group 2849" transform="translate(-3 -260)">
    <g id="egypt" transform="translate(3 174.663)">
      <rect id="Rectangle_1763" data-name="Rectangle 1763" width="18.699" height="12.466" transform="translate(0 85.337)" fill="#f0f0f0"/>
      <rect id="Rectangle_1764" data-name="Rectangle 1764" width="18.699" height="4.155" transform="translate(0 85.337)" fill="#d80027"/>
      <rect id="Rectangle_1765" data-name="Rectangle 1765" width="18.699" height="4.155" transform="translate(0 93.648)"/>
      <path id="Path_1983" data-name="Path 1983" d="M196.675,220.874h-1.753a.584.584,0,0,0-1.169,0H192a.6.6,0,0,0,.6.584h-.019a31646.442,31646.442,0,0,1,1.169,1.169h1.169a31646.442,31646.442,0,0,1,1.169-1.169h-.019A.6.6,0,0,0,196.675,220.874Z" transform="translate(-184.988 -130.024)" fill="#ff9811"/>
    </g>
  </g>
</svg>
