<svg xmlns="http://www.w3.org/2000/svg" width="7.555" height="24.5" viewBox="0 0 7.555 24.5">
  <g id="more" transform="translate(188.047 0.25) rotate(90)">
    <g id="Group_2718" data-name="Group 2718" transform="translate(16.945 180.742)">
      <g id="Group_2717" data-name="Group 2717" transform="translate(0 0)">
        <path id="Path_8640" data-name="Path 8640" d="M365.012,180.742a3.528,3.528,0,1,0,3.528,3.528A3.532,3.532,0,0,0,365.012,180.742Zm0,5.321a1.793,1.793,0,1,1,1.793-1.793A1.795,1.795,0,0,1,365.012,186.062Z" transform="translate(-361.484 -180.742)" fill="#858585" stroke="#fff" stroke-width="0.5"/>
      </g>
    </g>
    <g id="Group_2720" data-name="Group 2720" transform="translate(8.472 180.742)">
      <g id="Group_2719" data-name="Group 2719" transform="translate(0 0)">
        <path id="Path_8641" data-name="Path 8641" d="M184.27,180.742a3.528,3.528,0,1,0,3.528,3.528A3.532,3.532,0,0,0,184.27,180.742Zm0,5.321a1.793,1.793,0,1,1,1.793-1.793A1.795,1.795,0,0,1,184.27,186.062Z" transform="translate(-180.742 -180.742)" fill="#858585" stroke="#fff" stroke-width="0.5"/>
      </g>
    </g>
    <g id="Group_2722" data-name="Group 2722" transform="translate(0 180.742)">
      <g id="Group_2721" data-name="Group 2721" transform="translate(0 0)">
        <path id="Path_8642" data-name="Path 8642" d="M3.528,180.742a3.528,3.528,0,1,0,3.528,3.528A3.532,3.532,0,0,0,3.528,180.742Zm0,5.321a1.793,1.793,0,1,1,1.793-1.793A1.795,1.795,0,0,1,3.528,186.062Z" transform="translate(0 -180.742)" fill="#858585" stroke="#fff" stroke-width="0.5"/>
      </g>
    </g>
  </g>
</svg>
