<svg xmlns="http://www.w3.org/2000/svg" width="22.659" height="24.627" viewBox="0 0 22.659 24.627">
  <g id="bell" transform="translate(0 38)">
    <path id="Path_8957" data-name="Path 8957" d="M20.514,16.781h0c-.708,0-1.108-.368-1.337-1.228a15.828,15.828,0,0,1-.25-3.506A22.691,22.691,0,0,0,18.5,6.9a.366.366,0,0,0-.711.174,22.141,22.141,0,0,1,.407,4.981,16.211,16.211,0,0,0,.275,3.69,2.939,2.939,0,0,0,.481,1.04H3.709a2.939,2.939,0,0,0,.481-1.04,16.2,16.2,0,0,0,.275-3.69c.013-2.135.028-4.556.9-6.408.983-2.085,2.934-3.1,5.964-3.1a7.794,7.794,0,0,1,4.046.929A4.909,4.909,0,0,1,17.363,5.8a.366.366,0,0,0,.67-.294,5.693,5.693,0,0,0-2.279-2.655A6.941,6.941,0,0,0,13.5,2.011a2.178,2.178,0,0,0-4.344,0,7.007,7.007,0,0,0-2.163.783A5.64,5.64,0,0,0,4.7,5.331c-.942,2-.958,4.5-.971,6.715a15.816,15.816,0,0,1-.25,3.506c-.229.86-.629,1.228-1.337,1.228h0a2.144,2.144,0,0,0,0,4.289H4.459a.366.366,0,1,0,0-.731H2.144a1.413,1.413,0,0,1,0-2.826h18.37a1.413,1.413,0,0,1,0,2.826H5.922a.366.366,0,0,0,0,.731h1.5a3.922,3.922,0,0,0,7.811,0h5.28a2.144,2.144,0,0,0,0-4.289ZM11.329.732a1.45,1.45,0,0,1,1.419,1.162,12.546,12.546,0,0,0-2.838,0A1.45,1.45,0,0,1,11.329.732Zm0,23.164a3.2,3.2,0,0,1-3.17-2.826H14.5a3.2,3.2,0,0,1-3.17,2.826Zm0,0" transform="translate(0 -38)" fill="#858585"/>
  </g>
</svg>
